<?xml version="1.0" encoding="utf-8"?>
<!-- Generator: Adobe Illustrator 21.1.0, SVG Export Plug-In . SVG Version: 6.00 Build 0)  -->
<svg tabindex="-1" version="1.1" id="Layer_1" xmlns="http://www.w3.org/2000/svg" xmlns:xlink="http://www.w3.org/1999/xlink" x="" y=""
	 viewBox="0 0 800 141.32292" style="enable-background:new 0 0 800 141.32292;" xml:space="preserve">
<g>
	<g>
		<g>
			<polygon stroke-width="7" stroke="#fff" points="396.35934,0.00193 358.50018,92.77425 320.06204,0.00193 295.81293,0.00193 273.86008,141.32518 
				297.90924,141.32518 312.66727,45.79305 351.83224,141.32518 365.22083,141.32518 404.16495,45.83516 419.15445,141.32518 
				443.51962,141.32518 419.72345,0.00193 			"/>
			<polygon points="396.35934,0.00193 358.50018,92.77425 320.06204,0.00193 295.81293,0.00193 273.86008,141.32518 
				297.90924,141.32518 312.66727,45.79305 351.83224,141.32518 365.22083,141.32518 404.16495,45.83516 419.15445,141.32518 
				443.51962,141.32518 419.72345,0.00193 			"/>
		</g>
		<g>
			<polygon stroke-width="7" stroke="#fff" points="57.21004,141.32292 57.26244,18.99275 0,18.99275 0,0 140.8597,0 140.8597,18.99275 82.44928,18.99275 
				82.38595,141.32292 			"/>
			<polygon points="57.21004,141.32292 57.26244,18.99275 0,18.99275 0,0 140.8597,0 140.8597,18.99275 82.44928,18.99275 
				82.38595,141.32292 			"/>
		</g>
		<g>
			<polygon stroke-width="7" stroke="#fff" points="501.57513,141.32292 501.65933,0 618.58563,0 618.5647,21.01512 525.51849,21.01512 525.49762,58.67402 
				606.34534,58.67402 606.32446,77.56133 525.49762,77.56133 525.46576,120.72926 617.9433,120.72926 617.92212,141.32292 			"/>
			<polygon points="501.57513,141.32292 501.65933,0 618.58563,0 618.5647,21.01512 525.51849,21.01512 525.49762,58.67402 
				606.34534,58.67402 606.32446,77.56133 525.49762,77.56133 525.46576,120.72926 617.9433,120.72926 617.92212,141.32292 			"/>
		</g>
		<g>
			<polygon stroke-width="7" stroke="#fff" points="187.83286,141.32292 187.89586,0 212.42947,0 212.19769,141.32292 			"/>
			<polygon points="187.83286,141.32292 187.89586,0 212.42947,0 212.19769,141.32292 			"/>
		</g>
		<g>
			<polygon stroke-width="7" stroke="#fff" points="661.02606,141.32292 714.33795,66.93258 666.25055,0 697.0625,0 730.5603,47.2972 764.03717,0 794.92273,0 
				746.5296,66.94318 800,141.32292 769.1778,141.32292 730.53937,82.14356 691.85852,141.32292 			"/>
			<polygon points="661.02606,141.32292 714.33795,66.93258 666.25055,0 697.0625,0 730.5603,47.2972 764.03717,0 794.92273,0 
				746.5296,66.94318 800,141.32292 769.1778,141.32292 730.53937,82.14356 691.85852,141.32292 			"/>
		</g>
	</g>
</g>
</svg>
